PathFileType	4	(X/Y/Z)	C:/Users/beibeiliu/ov580/test_trc/User2\sequence.9_training_dense_right.trc
DataRate	CameraRate	NumFrames	NumMarkers	Units	OrigDataRate	OrigDataStartFrame	OrigNumFrames
120	120	18	19	mm	120	27	80
Frame#	Time	ThumbCMC			ThumbMCP			ThumbIP			ThumbTip			IndexMCP			IndexPIP			IndexTip			MiddleMCP			MiddlePIP			MiddleTip			RingMCP			RingPIP			RingTip			PinkyMCP			PinkyPIP			PinkyTip			BackHand1			BackHand2			BackHand3	
		X0	Y0	Z0	X1	Y1	Z1	X2	Y2	Z2	X3	Y3	Z3	X4	Y4	Z4	X5	Y5	Z5	X6	Y6	Z6	X7	Y7	Z7	X8	Y8	Z8	X9	Y9	Z9	X10	Y10	Z10	X11	Y11	Z11	X12	Y12	Z12	X13	Y13	Z13	X14	Y14	Z14	X15	Y15	Z15	X16	Y16	Z16	X17	Y17	Z17	X18	Y18	Z18	
26	0.216667	181.622	38.8575	-41.9848	178.533	48.3881	-70.3037	163.523	51.5821	-102.29	142.94	47.7603	-121.982	150.281	13.9918	-112.435	134.278	9.34498	-133.9	119.996	8.39548	-160.812	135.4	-5.22525	-112.049	116.434	-8.00212	-139.956	102.434	-13.2953	-163.967	119.776	-14.0867	-103.612	107.087	-14.5573	-125.461	93.9576	-19.2617	-149.177	107.247	-21.8419	-78.0438	98.8469	-18.5061	-101.29	89.8604	-21.9233	-122.004	147.778	-17.5846	-49.5337	162.474	-21.4947	-20.4535	181.048	1.91101	-46.3843	
27	0.225	187.371	43.0338	-38.9316	184.335	53.2601	-70.4448	167.075	49.453	-106.264	151.058	48.715	-124.199	158.802	10.4662	-114.956	148.509	8.40609	-137.724	135.898	3.79063	-164.941	147.167	-7.63671	-115.807	132.806	-12.8545	-142.781	122.152	-16.1973	-173.581	132.131	-20.008	-101.664	122.896	-19.1067	-128.267	110.642	-25.93	-154.198	120.225	-25.6829	-81.1705	109.418	-28.9975	-102.664	106.675	-28.485	-130.664	155.395	-20.1037	-52.0574	173.461	-19.5953	-19.5375	185.233	4.01857	-49.2796	
28	0.233333	182.611	46.4829	-37.2133	181.753	57.1332	-68.6933	169.338	56.9623	-98.9859	154.674	52.6199	-122.301	169.531	17.1645	-117.483	161.031	14.3007	-139.294	148.527	8.29024	-168.762	159.942	-3.98316	-118.478	150.813	-6.31423	-144.924	141.886	-13.2667	-176.227	146.141	-18.5213	-108.648	138.638	-21.8632	-131.713	131.484	-23.3961	-158.109	133.34	-27.2713	-86.3659	126.987	-29.6874	-111.191	123.357	-34.1148	-132.88	166.297	-17.4031	-51.4857	177.2	-18.3182	-19.1894	190.047	12.2183	-47.8936	
29	0.241667	170.902	51.1288	-28.2244	169.59	67.1489	-57.4688	161.543	68.7348	-95.1667	148.911	57.3636	-117.228	167.891	25.795	-114.112	163.094	24.956	-136.408	155.124	20.3804	-163.025	165.426	4.64591	-118.645	157.716	2.63263	-147.095	154.639	2.10971	-178.915	155.196	-12.9922	-107.458	150.608	-13.1732	-135.697	146.692	-12.5212	-163.505	143.769	-25.0018	-88.2624	139.672	-27.2556	-116.301	139.376	-29.9987	-137.141	170.102	-13.1367	-52.7883	179.715	-15.1726	-19.0313	186.669	22.5343	-39.3746	
30	0.25	157.292	54.9061	-24.1488	154.998	71.9762	-51.1898	147.376	74.6012	-84.2662	139.125	67.1791	-107.766	164.52	42.9251	-107.552	159.093	37.1607	-134.035	155.683	35.6342	-159.108	165.854	18.554	-115.348	161.514	18.6724	-146	159.55	17.5439	-175.604	161.957	-2.43675	-110.125	158.797	0.962083	-135.295	155.149	-0.536079	-166.274	152.295	-17.5581	-91.8174	149.795	-14.7569	-118.259	152.115	-15.3121	-139.491	172.077	-7.18701	-51.191	179.006	-7.23443	-20.5879	179.927	29.3043	-34.7494	
31	0.258333	139.774	50.2595	-16.7167	134.859	69.5484	-45.7843	129.762	73.6807	-77.7861	124.73	70.4252	-105.143	156.01	49.7633	-99.109	152.584	52.8807	-128.845	150.865	50.7297	-156.078	164.356	32.2595	-112.737	160.81	34.0822	-140.64	160.779	41.279	-172.328	164.806	12.2279	-109.49	162.904	14.5167	-134.919	160.623	22.0648	-159.682	161.462	-11.592	-93.6038	158.512	-4.43898	-117.863	160.669	3.23387	-141.374	173.618	2.74735	-50.823	181.036	0.999716	-16.7365	170.317	32.3606	-30.6108	
32	0.266667	118.677	39.6396	-8.75031	109.807	59.9823	-38.8197	106.615	68.06	-73.2	105.47	64.5335	-98.9936	139.23	57.8014	-90.4687	134.821	66.037	-121.37	134.649	67.2441	-145.274	153.263	45.3189	-102.118	148.976	54.1672	-132.903	152.715	59.793	-162.763	162.936	26.0826	-103.318	160.32	33.5111	-127.884	159.852	41.4646	-156.974	166.95	2.2113	-90.6479	166.377	8.13269	-116.856	163.417	22.1686	-140.874	174.358	10.8006	-46.6661	178.055	4.14682	-16.7741	156.127	36.3686	-27.3168	
33	0.275	104.672	24.1706	-8.29142	88.2158	43.1567	-30.6212	83.8211	52.7934	-65.6855	85.6942	55.5954	-94.4226	117.673	59.1158	-88.295	116.282	64.3181	-112.454	118.704	68.1904	-139.564	140.383	47.5623	-97.1018	134.271	58.7598	-125.829	133.809	69.7661	-152.078	154.23	34.9923	-101.911	152.044	42.6144	-123.329	150.366	51.2851	-148.131	165.399	13.5939	-89.6778	163.452	21.2659	-112.321	162.94	35.8601	-135.493	166.366	20.4615	-41.9834	169.006	13.5274	-13.5874	136.867	35.2513	-18.154	
34	0.283333	96.6508	12.979	-8.83374	76.8232	29.9084	-31.5529	73.473	35.4129	-62.1184	71.8275	41.1443	-92.1072	107.32	47.8075	-85.0512	99.8343	57.9609	-113.034	101.59	62.0058	-136.21	121.897	48.1385	-96.3788	119.618	53.913	-122.076	118.661	66.1481	-152.564	142.093	36.0215	-95.6836	140.563	41.7682	-118.031	133.957	56.1857	-145.782	158.891	17.0143	-85.7471	156.433	24.896	-109.675	151.471	38.6657	-128.443	157.902	19.6703	-37.8562	160.477	14.2971	-6.77734	125.369	31.1868	-18.2703	
35	0.291667	92.5407	4.72494	-4.23643	71.6491	19.7169	-32.1548	64.3051	25.2263	-64.3269	68.4136	24.3829	-89.8994	95.0677	41.5309	-86.886	95.3138	42.8943	-110.837	90.949	48.9315	-136.966	116.037	40.4405	-98.0536	112.101	44.5952	-124.479	112.209	52.8371	-152.618	138.756	29.7303	-94.6937	130.175	36.9705	-120.132	128.312	46.6676	-147.279	153.388	16.5499	-85.2724	149.594	19.7865	-105.144	145.405	31.8326	-128.703	149.307	23.0271	-35.5876	156.08	16.1612	-2.61314	121.526	28.167	-16.3074	
36	0.3	89.5753	3.42071	-6.90763	69.296	9.91631	-29.8153	63.6771	15.9931	-68.8761	63.5026	12.812	-92.1715	95.4562	29.449	-88.6973	88.4818	30.8564	-113.655	90.2714	30.5158	-140.156	109.445	28.9769	-99.036	107.963	28.7168	-125.946	102.676	36.6412	-157.065	133.483	20.4555	-95.4902	127.657	23.4332	-123.362	121.852	29.9437	-149.395	154.152	6.52152	-82.9271	147.987	12.6813	-111.631	141.7	19.3862	-126.695	146.177	17.3891	-36.8857	150.773	17.9623	-7.66994	117.34	24.4316	-14.7355	
37	0.308333	89.2115	-0.144874	-4.28176	66.1198	7.22045	-30.9035	60.9058	8.65624	-70.8006	61.682	3.00315	-94.267	93.1321	17.997	-89.8519	90.0553	16.2794	-116.075	83.3281	15.3337	-144.257	110.83	16.8799	-102.16	108.099	13.3993	-130.296	103.739	15.4547	-161.347	132.537	9.02187	-97.9816	125.41	8.15389	-126.03	118.225	10.895	-149.805	151.941	-4.65034	-86.7599	144.963	-2.84427	-112.856	136.894	2.92664	-133.541	147.309	12.8062	-38.2721	154.165	14.7156	-10.7914	115.915	22.2681	-22.8325	
38	0.316667	89.363	7.01	-3.85975	68.0767	12.3713	-31.3948	60.9076	9.19393	-69.5135	57.6992	-0.0272718	-90.6402	91.5023	10.3685	-95.5536	84.3511	6.06935	-119.797	80.3618	-1.95546	-146.624	111.891	4.3597	-103.463	101.609	-0.378784	-129.842	95.0769	-2.13897	-162.072	126.483	-5.12453	-102.314	123.629	-8.82139	-123.713	112.581	-9.07482	-150.959	146.586	-19.2886	-84.5501	141.422	-22.2271	-108.609	131.755	-19.1075	-131.175	146.25	3.26499	-41.4559	152.682	10.1294	-14.1503	120.147	22.341	-25.8245	
39	0.325	91.1537	21.7119	-5.13996	73.6982	23.6168	-36.1535	63.8423	14.1529	-67.4168	55.2634	3.18957	-86.8719	88.9046	7.37629	-89.9773	79.0883	-0.53068	-115.002	70.6283	-11.6302	-140.838	103.159	-5.27418	-103.988	93.9206	-15.8022	-130.212	86.1536	-23.5169	-158.631	120.875	-22.716	-101.175	111.401	-26.7276	-122.061	99.9957	-30.9681	-148.785	133.417	-33.9728	-80.7405	127.436	-40.6906	-106.132	118.815	-41.6967	-129.716	146.576	-8.79998	-43.9879	157.45	-0.21635	-14.0627	124.617	22.0553	-29.9506	
40	0.333333	100.794	32.5923	-9.29109	80.0935	35.3344	-33.4771	63.2936	24.3543	-63.2602	54.6934	9.12914	-81.8127	87.2251	5.54574	-88.5945	74.8535	-7.67729	-109.168	60.8396	-20.9081	-133.86	99.4846	-15.9798	-97.231	83.1808	-23.889	-118.018	71.1271	-34.4844	-147.038	111.711	-33.9249	-89.3416	97.7121	-39.1752	-112.107	86.419	-46.4179	-135.918	123.131	-48.0873	-72.5114	112.128	-54.8775	-95.9374	103.589	-57.8379	-117.65	140.502	-14.8705	-41.4842	158.158	-5.2031	-15.5411	130.825	17.0247	-30.2213	
41	0.341667	111.679	41.3813	-8.98143	88.8966	50.8592	-32.0125	68.732	34.3296	-59.2123	51.9697	20.0402	-75.8565	83.231	10.2045	-84.2212	66.1856	-2.4531	-101.941	49.9745	-12.3232	-119.98	87.1494	-13.731	-91.7065	70.1119	-25.5764	-109.394	53.2556	-36.8112	-134.016	95.9706	-34.7933	-82.5122	82.0486	-38.4084	-98.6424	63.823	-48.4963	-123.884	108.391	-48.6162	-59.2622	91.299	-52.9005	-84.4474	83.1933	-60.0591	-102.103	137.811	-17.2351	-36.0067	153.475	-9.46188	-14.6273	133.958	21.5741	-30.1224	
42	0.35	121.043	47.8757	-10.0435	99.6391	60.3937	-30.671	72.8459	50.2307	-57.2523	53.0624	38.0214	-71.7173	79.6192	15.2336	-80.5441	61.9547	8.8033	-94.0206	41.7485	0.437162	-111.109	79.8926	-7.71949	-85.2436	61.022	-14.0198	-99.6302	39.3295	-21.156	-122.433	84.9503	-22.8774	-73.8987	66.8364	-29.7895	-91.6933	48.7362	-32.0701	-109.995	95.1499	-41.9938	-52.8328	79.1959	-46.5712	-71.8872	64.7276	-49.814	-93.4639	132.265	-14.6133	-33.2886	151.812	-10.5264	-13.9587	135.029	22.723	-32.5048	
43	0.358333	130.925	56.7344	-9.83352	110.69	68.224	-30.2011	82.6013	64.8918	-52.3312	61.2335	56.8583	-63.58	82.766	28.4293	-73.8974	57.2253	27.3148	-93.7431	37.6351	22.0814	-106.265	77.4748	7.9517	-76.7191	52.0688	7.55387	-95.14	30.2626	2.58923	-113.239	78.6061	-11.6753	-68.5311	54.7027	-13.4047	-86.0691	34.8744	-17.867	-101.411	83.8146	-30.3581	-49.8503	64.7869	-29.1016	-66.2254	48.3145	-32.4593	-84.2255	127.566	-9.32751	-31.2092	150.037	-8.51152	-14.1556	139.891	22.8894	-28.5399	
